<?xml version="1.0" standalone="no"?><!-- Generator: Gravit.io --><svg xmlns="http://www.w3.org/2000/svg" xmlns:xlink="http://www.w3.org/1999/xlink" style="isolation:isolate" viewBox="0 0 16 16" width="16" height="16"><defs><clipPath id="_clipPath_WD24uX3tOVbWA08AUm32wV9j510ztQ2S"><rect width="16" height="16"/></clipPath></defs><g clip-path="url(#_clipPath_WD24uX3tOVbWA08AUm32wV9j510ztQ2S)"><path d=" M 6 1 L 4 1 L 4 1 L 4 7 L 12 7 L 12 1 L 12 1 L 10 1 L 10 4 L 9 4 L 9 1 L 7 1 L 7 3 L 6 3 L 6 1 Z  M 9 11 L 11 11 C 11.552 11 12 10.552 12 10 L 12 8 L 4 8 L 4 10 C 4 10.552 4.448 11 5 11 L 7 11 L 7 14 C 7 14.552 7.448 15 8 15 L 8 15 C 8.552 15 9 14.552 9 14 L 9 11 L 9 11 Z " fill-rule="evenodd" fill="rgb(0,0,0)"/></g></svg>