<?xml version="1.0" encoding="UTF-8" standalone="no"?><!-- Generator: Gravit.io --><svg xmlns="http://www.w3.org/2000/svg" xmlns:xlink="http://www.w3.org/1999/xlink" style="isolation:isolate" viewBox="0 0 16 16" width="16pt" height="16pt"><defs><clipPath id="_clipPath_oLjPxUVb3501KQ8pQ3bXzbKvdXZRDeIM"><rect width="16" height="16"/></clipPath></defs><g clip-path="url(#_clipPath_oLjPxUVb3501KQ8pQ3bXzbKvdXZRDeIM)"><path d=" M 11.866 10.623 L 11.866 10.623 C 13.706 9.895 15 8.097 15 6 C 15 3.24 12.76 1 10 1 C 7.903 1 6.105 2.294 5.377 4.134 L 5.377 4.134 C 2.876 4.638 1 6.851 1 9.5 L 1 9.5 C 1 12.536 3.464 15 6.5 15 C 9.149 15 11.362 13.124 11.866 10.623 Z  M 11.999 9.461 C 12.302 9.292 12.581 9.079 12.83 8.83 C 13.58 8.08 14 7.06 14 6 C 14 4.94 13.58 3.92 12.83 3.17 C 12.08 2.42 11.06 2 10 2 C 8.94 2 7.92 2.42 7.17 3.17 C 6.921 3.419 6.708 3.698 6.539 4.001 C 9.544 4.021 11.979 6.456 11.999 9.461 Z  M 2 9.5 C 2 8.31 2.47 7.16 3.32 6.32 C 4.16 5.47 5.31 5 6.5 5 C 7.69 5 8.84 5.47 9.68 6.32 C 10.53 7.16 11 8.31 11 9.5 C 11 10.69 10.53 11.84 9.68 12.68 C 8.84 13.53 7.69 14 6.5 14 C 5.31 14 4.16 13.53 3.32 12.68 C 2.47 11.84 2 10.69 2 9.5 L 2 9.5 Z " fill-rule="evenodd" fill="rgb(0,0,0)"/></g></svg>