<?xml version="1.0" encoding="UTF-8" standalone="no"?><!-- Generator: Gravit.io --><svg xmlns="http://www.w3.org/2000/svg" xmlns:xlink="http://www.w3.org/1999/xlink" style="isolation:isolate" viewBox="0 0 16 16" width="16pt" height="16pt"><defs><clipPath id="_clipPath_3jnrZd5CGmimGcAJZRazn2AUnfunnHnD"><rect width="16" height="16"/></clipPath></defs><g clip-path="url(#_clipPath_3jnrZd5CGmimGcAJZRazn2AUnfunnHnD)"><path d=" M 1 9.5 C 1 6.464 3.464 4 6.5 4 C 9.536 4 12 6.464 12 9.5 C 12 12.536 9.536 15 6.5 15 C 3.464 15 1 12.536 1 9.5 Z  M 5.955 3.109 C 6.867 1.83 8.381 1 10.09 1 C 12.899 1 15.18 3.24 15.18 6 C 15.18 7.751 14.262 9.292 12.865 10.174 C 12.96 9.799 13 9.404 13 9 C 13 5.689 10.311 3 7 3 C 6.641 3 6.29 3.032 5.955 3.109 Z " fill-rule="evenodd" fill="rgb(0,0,0)"/></g></svg>