<?xml version="1.0" standalone="no"?><!-- Generator: Gravit.io --><svg xmlns="http://www.w3.org/2000/svg" xmlns:xlink="http://www.w3.org/1999/xlink" style="isolation:isolate" viewBox="0 0 16 16" width="16" height="16"><defs><clipPath id="_clipPath_A1kwl6SJlmKezVtLTc2bHXLJW6JKFBsR"><rect width="16" height="16"/></clipPath></defs><g clip-path="url(#_clipPath_A1kwl6SJlmKezVtLTc2bHXLJW6JKFBsR)"><path d=" M 7.452 7.841 C 6.775 7.314 5.924 7 5 7 C 2.792 7 1 8.792 1 11 L 1 11 L 1 11 C 1 13.208 2.792 15 5 15 C 7.208 15 9 13.208 9 11 C 9 10.076 8.686 9.225 8.159 8.548 L 9.404 7.303 C 9.989 7.741 10.714 8 11.5 8 C 13.432 8 15 6.432 15 4.5 C 15 2.568 13.432 1 11.5 1 C 9.568 1 8 2.568 8 4.5 L 8 4.5 L 8 4.5 C 8 5.286 8.259 6.011 8.697 6.596 L 7.452 7.841 Z  M 2 11 C 2 10.2 2.32 9.44 2.88 8.88 C 3.44 8.32 4.2 8 5 8 C 5.8 8 6.56 8.32 7.12 8.88 C 7.68 9.44 8 10.2 8 11 C 8 11.8 7.68 12.56 7.12 13.12 C 6.56 13.68 5.8 14 5 14 C 4.2 14 3.44 13.68 2.88 13.12 C 2.32 12.56 2 11.8 2 11 L 2 11 L 2 11 Z  M 9 4.5 C 9 3.84 9.26 3.2 9.73 2.73 C 10.2 2.26 10.84 2 11.5 2 C 12.16 2 12.8 2.26 13.27 2.73 C 13.74 3.2 14 3.84 14 4.5 C 14 5.16 13.74 5.8 13.27 6.27 C 12.8 6.74 12.16 7 11.5 7 C 10.84 7 10.2 6.74 9.73 6.27 C 9.26 5.8 9 5.16 9 4.5 L 9 4.5 L 9 4.5 Z " fill-rule="evenodd" fill="rgb(0,0,0)"/></g></svg>