<?xml version="1.0" standalone="no"?><!-- Generator: Gravit.io --><svg xmlns="http://www.w3.org/2000/svg" xmlns:xlink="http://www.w3.org/1999/xlink" style="isolation:isolate" viewBox="0 0 16 16" width="16" height="16"><defs><clipPath id="_clipPath_5bagGQ8jUj5ECIinYGUDcz56dNJaK8IL"><rect width="16" height="16"/></clipPath></defs><g clip-path="url(#_clipPath_5bagGQ8jUj5ECIinYGUDcz56dNJaK8IL)"><path d=" M 7.293 8 L 5.738 6.445 C 5.247 6.794 4.648 7 4 7 C 2.344 7 1 5.656 1 4 L 1 4 L 1 4 L 1 4 L 1 4 C 1 2.344 2.344 1 4 1 C 5.656 1 7 2.344 7 4 C 7 4.648 6.794 5.247 6.445 5.738 L 6.445 5.738 L 8 7.293 L 9.555 5.738 C 9.206 5.247 9 4.648 9 4 L 9 4 L 9 4 L 9 4 L 9 4 L 9 4 C 9 2.344 10.344 1 12 1 C 13.656 1 15 2.344 15 4 C 15 5.656 13.656 7 12 7 C 11.352 7 10.753 6.794 10.262 6.445 L 8.707 8 L 10.262 9.555 C 10.753 9.206 11.352 9 12 9 C 13.656 9 15 10.344 15 12 C 15 13.656 13.656 15 12 15 C 10.344 15 9 13.656 9 12 L 9 12 L 9 12 L 9 12 C 9 11.352 9.206 10.753 9.555 10.262 L 8 8.707 L 6.445 10.262 C 6.794 10.753 7 11.352 7 12 C 7 13.656 5.656 15 4 15 C 2.344 15 1 13.656 1 12 L 1 12 L 1 12 L 1 12 C 1 10.344 2.344 9 4 9 C 4.648 9 5.247 9.206 5.738 9.555 L 7.293 8 Z  M 2 4 C 2 3.47 2.21 2.96 2.59 2.59 C 2.96 2.21 3.47 2 4 2 C 4.53 2 5.04 2.21 5.41 2.59 C 5.79 2.96 6 3.47 6 4 C 6 4.53 5.79 5.04 5.41 5.41 C 5.04 5.79 4.53 6 4 6 C 3.47 6 2.96 5.79 2.59 5.41 C 2.21 5.04 2 4.53 2 4 L 2 4 L 2 4 L 2 4 L 2 4 L 2 4 Z  M 10 4 C 10 3.47 10.21 2.96 10.59 2.59 C 10.96 2.21 11.47 2 12 2 C 12.53 2 13.04 2.21 13.41 2.59 C 13.79 2.96 14 3.47 14 4 C 14 4.53 13.79 5.04 13.41 5.41 C 13.04 5.79 12.53 6 12 6 C 11.47 6 10.96 5.79 10.59 5.41 C 10.21 5.04 10 4.53 10 4 L 10 4 L 10 4 L 10 4 L 10 4 L 10 4 Z  M 10 12 C 10 11.47 10.21 10.96 10.59 10.59 C 10.96 10.21 11.47 10 12 10 C 12.53 10 13.04 10.21 13.41 10.59 C 13.79 10.96 14 11.47 14 12 C 14 12.53 13.79 13.04 13.41 13.41 C 13.04 13.79 12.53 14 12 14 C 11.47 14 10.96 13.79 10.59 13.41 C 10.21 13.04 10 12.53 10 12 L 10 12 L 10 12 L 10 12 L 10 12 Z  M 2 12 C 2 11.47 2.21 10.96 2.59 10.59 C 2.96 10.21 3.47 10 4 10 C 4.53 10 5.04 10.21 5.41 10.59 C 5.79 10.96 6 11.47 6 12 C 6 12.53 5.79 13.04 5.41 13.41 C 5.04 13.79 4.53 14 4 14 C 3.47 14 2.96 13.79 2.59 13.41 C 2.21 13.04 2 12.53 2 12 L 2 12 L 2 12 L 2 12 Z " fill-rule="evenodd" fill="rgb(0,0,0)"/></g></svg>