<?xml version="1.0" standalone="no"?><!-- Generator: Gravit.io --><svg xmlns="http://www.w3.org/2000/svg" xmlns:xlink="http://www.w3.org/1999/xlink" style="isolation:isolate" viewBox="0 0 16 16" width="16" height="16"><defs><clipPath id="_clipPath_psxPddEkPLe2voezk8OrZLYMQmWBWyJS"><rect width="16" height="16"/></clipPath></defs><g clip-path="url(#_clipPath_psxPddEkPLe2voezk8OrZLYMQmWBWyJS)"><path d=" M 7.293 8 L 5.738 6.445 C 5.247 6.794 4.648 7 4 7 C 2.344 7 1 5.656 1 4 L 1 4 L 1 4 L 1 4 C 1 2.344 2.344 1 4 1 C 5.656 1 7 2.344 7 4 C 7 4.648 6.794 5.247 6.445 5.738 L 6.445 5.738 L 8 7.293 L 9.555 5.738 C 9.206 5.247 9 4.648 9 4 L 9 4 L 9 4 L 9 4 L 9 4 C 9 2.344 10.344 1 12 1 C 13.656 1 15 2.344 15 4 C 15 5.656 13.656 7 12 7 C 11.352 7 10.753 6.794 10.262 6.445 L 8.707 8 L 10.262 9.555 C 10.753 9.206 11.352 9 12 9 C 13.656 9 15 10.344 15 12 C 15 13.656 13.656 15 12 15 C 10.344 15 9 13.656 9 12 L 9 12 C 9 11.352 9.206 10.753 9.555 10.262 L 8 8.707 L 6.445 10.262 C 6.794 10.753 7 11.352 7 12 C 7 13.656 5.656 15 4 15 C 2.344 15 1 13.656 1 12 L 1 12 L 1 12 L 1 12 C 1 10.344 2.344 9 4 9 C 4.648 9 5.247 9.206 5.738 9.555 L 7.293 8 Z " fill="rgb(0,0,0)"/></g></svg>