<?xml version="1.0" standalone="no"?><!-- Generator: Gravit.io --><svg xmlns="http://www.w3.org/2000/svg" xmlns:xlink="http://www.w3.org/1999/xlink" style="isolation:isolate" viewBox="0 0 16 16" width="16" height="16"><defs><clipPath id="_clipPath_OFiEtnWhWi13zlzyQ3X7LrQtwx1s0JCL"><rect width="16" height="16"/></clipPath></defs><g clip-path="url(#_clipPath_OFiEtnWhWi13zlzyQ3X7LrQtwx1s0JCL)"><path d=" M 7.452 7.841 C 6.775 7.314 5.924 7 5 7 C 2.792 7 1 8.792 1 11 L 1 11 C 1 13.208 2.792 15 5 15 C 7.208 15 9 13.208 9 11 C 9 10.076 8.686 9.225 8.159 8.548 L 9.404 7.303 C 9.989 7.741 10.714 8 11.5 8 C 13.432 8 15 6.432 15 4.5 C 15 2.568 13.432 1 11.5 1 C 9.568 1 8 2.568 8 4.5 L 8 4.5 C 8 5.286 8.259 6.011 8.697 6.596 L 7.452 7.841 Z " fill="rgb(0,0,0)"/></g></svg>