<?xml version="1.0" encoding="UTF-8" standalone="no"?><!-- Generator: Gravit.io --><svg xmlns="http://www.w3.org/2000/svg" xmlns:xlink="http://www.w3.org/1999/xlink" style="isolation:isolate" viewBox="0 0 16 16" width="16pt" height="16pt"><defs><clipPath id="_clipPath_ZUXN7X84ALwe6vYj0RCERl7lJyrTlAnA"><rect width="16" height="16"/></clipPath></defs><g clip-path="url(#_clipPath_ZUXN7X84ALwe6vYj0RCERl7lJyrTlAnA)"><path d=" M 6.727 11.291 C 5.705 11.765 5 12.801 5 14 L 11 14 C 11 12.801 10.295 11.765 9.273 11.291 C 9.417 11.061 9.5 10.79 9.5 10.5 C 9.5 9.672 8.828 9 8 9 C 7.172 9 6.5 9.672 6.5 10.5 C 6.5 10.79 6.583 11.061 6.727 11.291 L 6.727 11.291 L 6.727 11.291 Z  M 1 5.499 C 1 6.109 1.195 6.948 1.67 6.999 C 2.145 7.05 4.798 5.531 5 5.245 C 5.202 4.959 5.124 4.327 5.145 4.143 C 5.165 3.96 7.021 3.726 8.014 3.722 C 9.006 3.726 10.835 3.96 10.855 4.143 C 10.876 4.327 10.798 4.959 11 5.245 C 11.202 5.531 13.855 7.05 14.33 6.999 C 14.805 6.948 15 6.109 15 5.499 C 15 3.572 11.895 1.999 8 1.999 C 4.105 1.999 1 3.572 1 5.499 L 1 5.499 L 1 5.499 Z  M 4.126 13 L 1 13 C 1 11.801 1.705 10.765 2.727 10.291 C 2.583 10.061 2.5 9.79 2.5 9.5 C 2.5 8.672 3.172 8 4 8 C 4.828 8 5.5 8.672 5.5 9.5 C 5.5 9.79 5.417 10.061 5.273 10.291 C 5.478 10.386 5.669 10.503 5.835 10.65 C 4.998 11.179 4.38 12.017 4.126 13 L 4.126 13 Z  M 10.165 10.65 C 10.331 10.503 10.522 10.386 10.727 10.291 C 10.583 10.061 10.5 9.79 10.5 9.5 C 10.5 8.672 11.172 8 12 8 C 12.828 8 13.5 8.672 13.5 9.5 C 13.5 9.79 13.417 10.061 13.273 10.291 C 14.295 10.765 15 11.801 15 13 L 11.874 13 C 11.62 12.017 11.002 11.179 10.165 10.65 Z " fill-rule="evenodd" fill="rgb(0,0,0)"/></g></svg>