<?xml version="1.0" encoding="UTF-8" standalone="no"?><!-- Generator: Gravit.io --><svg xmlns="http://www.w3.org/2000/svg" xmlns:xlink="http://www.w3.org/1999/xlink" style="isolation:isolate" viewBox="0 0 16 16" width="16pt" height="16pt"><defs><clipPath id="_clipPath_CrTQ84jJs1tHrgO50solD4TWA11xvzUo"><rect width="16" height="16"/></clipPath></defs><g clip-path="url(#_clipPath_CrTQ84jJs1tHrgO50solD4TWA11xvzUo)"><path d=" M 11.67 10.61 C 11.77 10.33 11.73 10.02 11.57 9.76 C 11.53 9.68 11.5 9.59 11.5 9.5 C 11.5 9.37 11.55 9.24 11.65 9.15 C 11.74 9.05 11.87 9 12 9 C 12.13 9 12.26 9.05 12.35 9.15 C 12.45 9.24 12.5 9.37 12.5 9.5 L 12.5 9.5 L 12.5 9.5 C 12.5 9.59 12.47 9.68 12.43 9.76 C 12.27 10 12.23 10.3 12.31 10.58 C 12.4 10.85 12.59 11.08 12.85 11.2 C 13.22 11.37 13.53 11.65 13.73 12 L 12.58 12 C 12.36 11.49 12.05 11.02 11.67 10.61 L 11.67 10.61 L 11.67 10.61 L 11.67 10.61 Z  M 7.5 10.5 C 7.5 10.37 7.55 10.24 7.65 10.15 C 7.74 10.05 7.87 10 8 10 C 8.13 10 8.26 10.05 8.35 10.15 C 8.45 10.24 8.5 10.37 8.5 10.5 C 8.5 10.59 8.47 10.68 8.43 10.76 C 8.27 11 8.23 11.3 8.31 11.58 C 8.4 11.85 8.59 12.08 8.85 12.2 C 9.22 12.37 9.53 12.65 9.73 13 L 6.27 13 C 6.47 12.65 6.78 12.37 7.15 12.2 C 7.41 12.08 7.6 11.85 7.69 11.58 C 7.77 11.3 7.73 11 7.57 10.76 C 7.53 10.68 7.5 10.59 7.5 10.5 L 7.5 10.5 L 7.5 10.5 L 7.5 10.5 Z  M 11.86 4.659 C 11.86 4.609 11.86 4.559 11.86 4.509 C 11.86 4.509 11.86 4.509 11.86 4.509 L 11.86 4.359 L 11.86 4.239 L 11.85 4.109 C 11.85 3.999 11.83 3.889 11.79 3.779 C 11.76 3.709 11.72 3.639 11.68 3.569 C 11.97 3.669 12.25 3.789 12.53 3.929 C 12.98 4.139 13.38 4.439 13.71 4.809 C 13.89 4.999 13.99 5.259 14 5.519 C 14 5.629 13.99 5.739 13.97 5.839 C 13.65 5.689 13.32 5.529 13.01 5.349 C 12.69 5.179 12.37 4.989 12.06 4.789 C 11.99 4.749 11.93 4.709 11.86 4.659 L 11.86 4.659 L 11.86 4.659 Z  M 2.03 5.839 C 2.01 5.739 2 5.629 2 5.519 C 2.01 5.259 2.11 4.999 2.29 4.809 C 2.62 4.439 3.02 4.139 3.47 3.929 C 3.75 3.789 4.03 3.669 4.32 3.569 C 4.28 3.639 4.24 3.709 4.21 3.779 C 4.17 3.879 4.15 3.989 4.15 4.109 L 4.14 4.239 L 4.14 4.359 L 4.14 4.509 C 4.14 4.509 4.14 4.509 4.14 4.509 C 4.14 4.559 4.14 4.609 4.14 4.659 C 4.07 4.709 4.01 4.749 3.94 4.789 C 3.63 4.989 3.31 5.179 2.99 5.349 C 2.68 5.529 2.35 5.689 2.03 5.839 L 2.03 5.839 L 2.03 5.839 Z  M 10.165 10.65 C 10.331 10.503 10.522 10.386 10.727 10.291 C 10.583 10.061 10.5 9.79 10.5 9.5 C 10.5 8.672 11.172 8 12 8 C 12.828 8 13.5 8.672 13.5 9.5 C 13.5 9.79 13.417 10.061 13.273 10.291 C 14.295 10.765 15 11.801 15 13 L 11.874 13 C 11.62 12.017 11.002 11.179 10.165 10.65 L 10.165 10.65 L 10.165 10.65 L 10.165 10.65 Z  M 6.5 10.5 C 6.5 9.672 7.172 9 8 9 C 8.828 9 9.5 9.672 9.5 10.5 C 9.5 10.79 9.417 11.061 9.273 11.291 C 10.295 11.765 11 12.801 11 14 L 5 14 C 5 12.801 5.705 11.765 6.727 11.291 C 6.583 11.061 6.5 10.79 6.5 10.5 L 6.5 10.5 L 6.5 10.5 L 6.5 10.5 Z  M 8 1.999 C 11.895 1.999 15 3.572 15 5.499 C 15 6.109 14.805 6.948 14.33 6.999 C 13.855 7.05 11.202 5.531 11 5.245 C 10.798 4.959 10.876 4.327 10.855 4.143 C 10.835 3.96 9.006 3.726 8.014 3.722 C 7.021 3.726 5.165 3.96 5.145 4.143 C 5.124 4.327 5.202 4.959 5 5.245 C 4.798 5.531 2.145 7.05 1.67 6.999 C 1.195 6.948 1 6.109 1 5.499 C 1 3.572 4.105 1.999 8 1.999 L 8 1.999 L 8 1.999 Z  M 4.33 10.61 C 3.95 11.02 3.64 11.49 3.42 12 L 2.27 12 C 2.47 11.65 2.78 11.37 3.15 11.2 C 3.41 11.08 3.6 10.85 3.69 10.58 C 3.77 10.3 3.73 10 3.57 9.76 C 3.53 9.68 3.5 9.59 3.5 9.5 C 3.5 9.37 3.55 9.24 3.65 9.15 C 3.74 9.05 3.87 9 4 9 C 4.13 9 4.26 9.05 4.35 9.15 C 4.45 9.24 4.5 9.37 4.5 9.5 L 4.5 9.5 L 4.5 9.5 C 4.5 9.59 4.47 9.68 4.43 9.76 C 4.27 10.02 4.23 10.33 4.33 10.61 L 4.33 10.61 Z  M 4.126 13 L 1 13 C 1 11.801 1.705 10.765 2.727 10.291 C 2.583 10.061 2.5 9.79 2.5 9.5 C 2.5 8.672 3.172 8 4 8 C 4.828 8 5.5 8.672 5.5 9.5 C 5.5 9.79 5.417 10.061 5.273 10.291 C 5.478 10.386 5.669 10.503 5.835 10.65 C 4.998 11.179 4.38 12.017 4.126 13 L 4.126 13 Z " fill-rule="evenodd" fill="rgb(0,0,0)"/></g></svg>