<?xml version="1.0" standalone="no"?><!-- Generator: Gravit.io --><svg xmlns="http://www.w3.org/2000/svg" xmlns:xlink="http://www.w3.org/1999/xlink" style="isolation:isolate" viewBox="0 0 16 16" width="16" height="16"><defs><clipPath id="_clipPath_KNXksW1UMpfr1sXjfSxyk1uWiPPgFWa3"><rect width="16" height="16"/></clipPath></defs><g clip-path="url(#_clipPath_KNXksW1UMpfr1sXjfSxyk1uWiPPgFWa3)"><path d=" M 10 5 L 10 6 L 11 6 L 11 5 L 10 5 L 10 5 L 10 5 Z  M 5 10 L 5 11 L 6 11 L 6 10 L 5 10 L 5 10 L 5 10 Z  M 9 5 L 3 5 L 3 6 L 9 6 C 9 6.552 9.448 7 10 7 L 11 7 C 11.552 7 12 6.552 12 6 L 13 6 L 13 5 L 12 5 C 12 4.448 11.552 4 11 4 L 10 4 C 9.448 4 9 4.448 9 5 L 9 5 L 9 5 Z  M 4 10 L 3 10 L 3 11 L 4 11 C 4 11.552 4.448 12 5 12 L 6 12 C 6.552 12 7 11.552 7 11 L 13 11 L 13 10 L 7 10 C 7 9.448 6.552 9 6 9 L 5 9 C 4.448 9 4 9.448 4 10 L 4 10 L 4 10 Z  M 2 2 L 14 2 L 14 14 L 2 14 L 2 2 L 2 2 Z  M 1 1 L 15 1 L 15 15 L 1 15 L 1 1 L 1 1 Z " fill-rule="evenodd" fill="rgb(0,0,0)"/></g></svg>