<?xml version="1.0" standalone="no"?><!-- Generator: Gravit.io --><svg xmlns="http://www.w3.org/2000/svg" xmlns:xlink="http://www.w3.org/1999/xlink" style="isolation:isolate" viewBox="0 0 16 16" width="16" height="16"><defs><clipPath id="_clipPath_lCKGqUNlNgbmeTyl46w0wk6ik6yYjWHB"><rect width="16" height="16"/></clipPath></defs><g clip-path="url(#_clipPath_lCKGqUNlNgbmeTyl46w0wk6ik6yYjWHB)"><path d=" M 7 11 L 13 11 L 13 10 L 7 10 C 7 9.448 6.552 9 6 9 L 5 9 C 4.448 9 4 9.448 4 10 L 3 10 L 3 10 L 3 11 L 4 11 C 4 11.552 4.448 12 5 12 L 6 12 C 6.552 12 7 11.552 7 11 L 7 11 L 7 11 Z  M 10 5 L 11 5 L 11 6 L 10 6 L 10 5 L 10 5 Z  M 9 6 L 3 6 L 3 5 L 3 5 L 9 5 C 9 4.448 9.448 4 10 4 L 11 4 C 11.552 4 12 4.448 12 5 L 13 5 L 13 6 L 12 6 C 12 6.552 11.552 7 11 7 L 10 7 C 9.448 7 9 6.552 9 6 L 9 6 L 9 6 L 9 6 Z  M 1 1 L 15 1 L 15 15 L 1 15 L 1 1 L 1 1 L 1 1 L 1 1 Z  M 5 10 L 6 10 L 6 11 L 5 11 L 5 10 Z " fill-rule="evenodd" fill="rgb(0,0,0)"/></g></svg>