<?xml version="1.0" standalone="no"?><!-- Generator: Gravit.io --><svg xmlns="http://www.w3.org/2000/svg" xmlns:xlink="http://www.w3.org/1999/xlink" style="isolation:isolate" viewBox="0 0 16 16" width="16" height="16"><defs><clipPath id="_clipPath_ihgeRjMaquYrtsGZOcevGrWwEfFN02RU"><rect width="16" height="16"/></clipPath></defs><g clip-path="url(#_clipPath_ihgeRjMaquYrtsGZOcevGrWwEfFN02RU)"><path d=" M 9.569 10.913 L 8.04 8.266 L 6.478 10.971 C 6.805 11.394 7 11.925 7 12.5 C 7 13.88 5.88 15 4.5 15 C 3.12 15 2 13.88 2 12.5 L 2 12.5 L 2 12.5 C 2 11.12 3.12 10 4.5 10 C 4.937 10 5.348 10.112 5.705 10.31 L 5.705 10.31 L 7.463 7.266 L 4.134 1.5 L 4.134 1.5 L 5 1 L 8.04 6.266 L 11.08 1 L 11.946 1.5 L 8.617 7.266 L 10.356 10.277 C 10.699 10.1 11.088 10 11.5 10 C 12.88 10 14 11.12 14 12.5 C 14 13.88 12.88 15 11.5 15 C 10.12 15 9 13.88 9 12.5 L 9 12.5 C 9 11.898 9.213 11.345 9.569 10.913 Z  M 3 12.5 C 3 12.1 3.16 11.72 3.44 11.44 C 3.72 11.16 4.1 11 4.5 11 C 4.9 11 5.28 11.16 5.56 11.44 C 5.84 11.72 6 12.1 6 12.5 C 6 12.9 5.84 13.28 5.56 13.56 C 5.28 13.84 4.9 14 4.5 14 C 4.1 14 3.72 13.84 3.44 13.56 C 3.16 13.28 3 12.9 3 12.5 L 3 12.5 L 3 12.5 L 3 12.5 Z  M 10 12.5 C 10 12.1 10.16 11.72 10.44 11.44 C 10.72 11.16 11.1 11 11.5 11 C 11.9 11 12.28 11.16 12.56 11.44 C 12.84 11.72 13 12.1 13 12.5 C 13 12.9 12.84 13.28 12.56 13.56 C 12.28 13.84 11.9 14 11.5 14 C 11.1 14 10.72 13.84 10.44 13.56 C 10.16 13.28 10 12.9 10 12.5 L 10 12.5 Z " fill-rule="evenodd" fill="rgb(0,0,0)"/></g></svg>