<?xml version="1.0" standalone="no"?><!-- Generator: Gravit.io --><svg xmlns="http://www.w3.org/2000/svg" xmlns:xlink="http://www.w3.org/1999/xlink" style="isolation:isolate" viewBox="0 0 16 16" width="16" height="16"><defs><clipPath id="_clipPath_SzVIOxphnBvZisfXRq1WbAOmnaPcDkXZ"><rect width="16" height="16"/></clipPath></defs><g clip-path="url(#_clipPath_SzVIOxphnBvZisfXRq1WbAOmnaPcDkXZ)"><path d=" M 10 11 L 15 11 L 15 1 L 1 1 L 1 1 L 1 11 L 6 11 L 6 14 L 3 14 L 3 14 L 3 15 L 6 15 L 6 15 L 10 15 L 10 15 L 13 15 L 13 14 L 10 14 L 10 11 Z  M 3 3 L 4 3 L 4 4 L 3 4 L 3 3 L 3 3 L 3 3 L 3 3 L 3 3 L 3 3 L 3 3 L 3 3 L 3 3 L 3 3 L 3 3 L 3 3 L 3 3 L 3 3 L 3 3 L 3 3 L 3 3 Z  M 4 5 L 5 5 L 5 6 L 4 6 L 4 5 L 4 5 L 4 5 L 4 5 L 4 5 L 4 5 L 4 5 L 4 5 L 4 5 L 4 5 L 4 5 L 4 5 L 4 5 L 4 5 L 4 5 L 4 5 L 4 5 Z  M 4 7 L 5 7 L 5 8 L 4 8 L 4 7 L 4 7 L 4 7 L 4 7 L 4 7 L 4 7 L 4 7 L 4 7 L 4 7 L 4 7 L 4 7 L 4 7 L 4 7 L 4 7 L 4 7 Z  M 6 4 L 7 4 L 7 5 L 6 5 L 6 4 L 6 4 L 6 4 L 6 4 L 6 4 L 6 4 L 6 4 L 6 4 L 6 4 L 6 4 L 6 4 L 6 4 L 6 4 Z  M 8 6 L 9 6 L 9 7 L 8 7 L 8 6 L 8 6 L 8 6 L 8 6 L 8 6 L 8 6 L 8 6 L 8 6 L 8 6 L 8 6 L 8 6 Z  M 10 6 L 11 6 L 11 7 L 10 7 L 10 6 L 10 6 L 10 6 L 10 6 L 10 6 L 10 6 L 10 6 L 10 6 L 10 6 Z  M 12 4 L 13 4 L 13 5 L 12 5 L 12 4 L 12 4 L 12 4 L 12 4 L 12 4 L 12 4 L 12 4 Z  M 12 8 L 13 8 L 13 9 L 12 9 L 12 8 L 12 8 L 12 8 L 12 8 L 12 8 Z " fill-rule="evenodd" fill="rgb(0,0,0)"/></g></svg>