<?xml version="1.0" encoding="UTF-8" standalone="no"?><!-- Generator: Gravit.io --><svg xmlns="http://www.w3.org/2000/svg" xmlns:xlink="http://www.w3.org/1999/xlink" style="isolation:isolate" viewBox="0 0 16 16" width="16pt" height="16pt"><defs><clipPath id="_clipPath_5O3LgNEtv2QHIF54RlZ4dhfJaPwwAoIi"><rect width="16" height="16"/></clipPath></defs><g clip-path="url(#_clipPath_5O3LgNEtv2QHIF54RlZ4dhfJaPwwAoIi)"><path d=" M 7 1 L 8 1 L 8 2 L 7 2 L 7 1 L 7 1 L 7 1 L 7 1 L 7 1 L 7 1 L 7 1 L 7 1 L 7 1 L 7 1 Z  M 3 1 L 4 1 L 4 2 L 3 2 L 3 1 L 3 1 L 3 1 L 3 1 L 3 1 L 3 1 L 3 1 L 3 1 L 3 1 L 3 1 Z  M 11 5 L 12 5 L 12 6 L 11 6 L 11 5 L 11 5 L 11 5 L 11 5 L 11 5 L 11 5 Z  M 11 1 L 12 1 L 12 2 L 11 2 L 11 1 L 11 1 L 11 1 L 11 1 L 11 1 L 11 1 L 11 1 L 11 1 L 11 1 Z  M 7 9 L 8 9 L 8 10 L 7 10 L 7 9 L 7 9 L 7 9 L 7 9 L 7 9 Z  M 7 5 L 8 5 L 8 6 L 7 6 L 7 5 L 7 5 L 7 5 L 7 5 L 7 5 L 7 5 L 7 5 L 7 5 Z  M 3 9 L 4 9 L 4 10 L 3 10 L 3 9 L 3 9 L 3 9 L 3 9 Z  M 3 5 L 4 5 L 4 6 L 3 6 L 3 5 L 3 5 L 3 5 L 3 5 L 3 5 L 3 5 L 3 5 Z  M 11 9 L 12 9 L 12 10 L 11 10 L 11 9 L 11 9 L 11 9 Z  M 11 8 L 12 8 C 12.552 8 13 8.448 13 9 L 13 10 C 13 10.552 12.552 11 12 11 L 11 11 C 10.448 11 10 10.552 10 10 L 10 9 C 10 8.448 10.448 8 11 8 L 11 8 L 11 8 Z  M 7 0 L 8 0 C 8.552 0 9 0.448 9 1 L 9 2 C 9 2.552 8.552 3 8 3 L 7 3 C 6.448 3 6 2.552 6 2 L 6 1 C 6 0.448 6.448 0 7 0 L 7 0 L 7 0 L 7 0 L 7 0 L 7 0 L 7 0 L 7 0 L 7 0 L 7 0 Z  M 3 0 L 4 0 C 4.552 0 5 0.448 5 1 L 5 2 C 5 2.552 4.552 3 4 3 L 3 3 C 2.448 3 2 2.552 2 2 L 2 1 C 2 0.448 2.448 0 3 0 L 3 0 L 3 0 L 3 0 L 3 0 L 3 0 L 3 0 L 3 0 L 3 0 L 3 0 Z  M 11 4 L 12 4 C 12.552 4 13 4.448 13 5 L 13 6 C 13 6.552 12.552 7 12 7 L 11 7 C 10.448 7 10 6.552 10 6 L 10 5 C 10 4.448 10.448 4 11 4 L 11 4 L 11 4 L 11 4 L 11 4 L 11 4 Z  M 11 0 L 12 0 C 12.552 0 13 0.448 13 1 L 13 2 C 13 2.552 12.552 3 12 3 L 11 3 C 10.448 3 10 2.552 10 2 L 10 1 C 10 0.448 10.448 0 11 0 L 11 0 L 11 0 L 11 0 L 11 0 L 11 0 L 11 0 L 11 0 L 11 0 Z  M 7 8 L 8 8 C 8.552 8 9 8.448 9 9 L 9 10 C 9 10.552 8.552 11 8 11 L 7 11 C 6.448 11 6 10.552 6 10 L 6 9 C 6 8.448 6.448 8 7 8 L 7 8 L 7 8 L 7 8 L 7 8 Z  M 7 4 L 8 4 C 8.552 4 9 4.448 9 5 L 9 6 C 9 6.552 8.552 7 8 7 L 7 7 C 6.448 7 6 6.552 6 6 L 6 5 C 6 4.448 6.448 4 7 4 L 7 4 L 7 4 L 7 4 L 7 4 L 7 4 L 7 4 L 7 4 Z  M 3 8 L 4 8 C 4.552 8 5 8.448 5 9 L 5 10 C 5 10.552 4.552 11 4 11 L 3 11 C 2.448 11 2 10.552 2 10 L 2 9 C 2 8.448 2.448 8 3 8 L 3 8 L 3 8 L 3 8 Z  M 3 4 L 4 4 C 4.552 4 5 4.448 5 5 L 5 6 C 5 6.552 4.552 7 4 7 L 3 7 C 2.448 7 2 6.552 2 6 L 2 5 C 2 4.448 2.448 4 3 4 L 3 4 L 3 4 L 3 4 L 3 4 L 3 4 L 3 4 Z  M 7 13 L 8 13 L 8 14 L 7 14 L 7 13 L 7 13 Z  M 7 12 L 8 12 C 8.552 12 9 12.448 9 13 L 9 14 C 9 14.552 8.552 15 8 15 L 7 15 C 6.448 15 6 14.552 6 14 L 6 13 C 6 12.448 6.448 12 7 12 L 7 12 Z " fill-rule="evenodd" fill="rgb(0,0,0)"/></g></svg>