<?xml version="1.0" encoding="UTF-8" standalone="no"?><!-- Generator: Gravit.io --><svg xmlns="http://www.w3.org/2000/svg" xmlns:xlink="http://www.w3.org/1999/xlink" style="isolation:isolate" viewBox="0 0 16 16" width="16pt" height="16pt"><defs><clipPath id="_clipPath_8bEJWi8wXogxj0HCo2g76FEVEO85fqAa"><rect width="16" height="16"/></clipPath></defs><g clip-path="url(#_clipPath_8bEJWi8wXogxj0HCo2g76FEVEO85fqAa)"><path d=" M 11.5 8 L 12.5 8 C 13.052 8 13.5 8.448 13.5 9 L 13.5 10 C 13.5 10.552 13.052 11 12.5 11 L 11.5 11 C 10.948 11 10.5 10.552 10.5 10 L 10.5 9 C 10.5 8.448 10.948 8 11.5 8 L 11.5 8 L 11.5 8 Z  M 7.5 0 L 8.5 0 C 9.052 0 9.5 0.448 9.5 1 L 9.5 2 C 9.5 2.552 9.052 3 8.5 3 L 7.5 3 C 6.948 3 6.5 2.552 6.5 2 L 6.5 1 C 6.5 0.448 6.948 0 7.5 0 L 7.5 0 L 7.5 0 L 7.5 0 L 7.5 0 L 7.5 0 L 7.5 0 L 7.5 0 L 7.5 0 L 7.5 0 Z  M 3.5 0 L 4.5 0 C 5.052 0 5.5 0.448 5.5 1 L 5.5 2 C 5.5 2.552 5.052 3 4.5 3 L 3.5 3 C 2.948 3 2.5 2.552 2.5 2 L 2.5 1 C 2.5 0.448 2.948 0 3.5 0 L 3.5 0 L 3.5 0 L 3.5 0 L 3.5 0 L 3.5 0 L 3.5 0 L 3.5 0 L 3.5 0 L 3.5 0 Z  M 11.5 4 L 12.5 4 C 13.052 4 13.5 4.448 13.5 5 L 13.5 6 C 13.5 6.552 13.052 7 12.5 7 L 11.5 7 C 10.948 7 10.5 6.552 10.5 6 L 10.5 5 C 10.5 4.448 10.948 4 11.5 4 L 11.5 4 L 11.5 4 L 11.5 4 L 11.5 4 L 11.5 4 Z  M 11.5 0 L 12.5 0 C 13.052 0 13.5 0.448 13.5 1 L 13.5 2 C 13.5 2.552 13.052 3 12.5 3 L 11.5 3 C 10.948 3 10.5 2.552 10.5 2 L 10.5 1 C 10.5 0.448 10.948 0 11.5 0 L 11.5 0 L 11.5 0 L 11.5 0 L 11.5 0 L 11.5 0 L 11.5 0 L 11.5 0 L 11.5 0 Z  M 7.5 8 L 8.5 8 C 9.052 8 9.5 8.448 9.5 9 L 9.5 10 C 9.5 10.552 9.052 11 8.5 11 L 7.5 11 C 6.948 11 6.5 10.552 6.5 10 L 6.5 9 C 6.5 8.448 6.948 8 7.5 8 L 7.5 8 L 7.5 8 L 7.5 8 L 7.5 8 Z  M 7.5 4 L 8.5 4 C 9.052 4 9.5 4.448 9.5 5 L 9.5 6 C 9.5 6.552 9.052 7 8.5 7 L 7.5 7 C 6.948 7 6.5 6.552 6.5 6 L 6.5 5 C 6.5 4.448 6.948 4 7.5 4 L 7.5 4 L 7.5 4 L 7.5 4 L 7.5 4 L 7.5 4 L 7.5 4 L 7.5 4 Z  M 3.5 8 L 4.5 8 C 5.052 8 5.5 8.448 5.5 9 L 5.5 10 C 5.5 10.552 5.052 11 4.5 11 L 3.5 11 C 2.948 11 2.5 10.552 2.5 10 L 2.5 9 C 2.5 8.448 2.948 8 3.5 8 L 3.5 8 L 3.5 8 L 3.5 8 Z  M 3.5 4 L 4.5 4 C 5.052 4 5.5 4.448 5.5 5 L 5.5 6 C 5.5 6.552 5.052 7 4.5 7 L 3.5 7 C 2.948 7 2.5 6.552 2.5 6 L 2.5 5 C 2.5 4.448 2.948 4 3.5 4 L 3.5 4 L 3.5 4 L 3.5 4 L 3.5 4 L 3.5 4 L 3.5 4 Z  M 7.5 12 L 8.5 12 C 9.052 12 9.5 12.448 9.5 13 L 9.5 14 C 9.5 14.552 9.052 15 8.5 15 L 7.5 15 C 6.948 15 6.5 14.552 6.5 14 L 6.5 13 C 6.5 12.448 6.948 12 7.5 12 L 7.5 12 Z " fill-rule="evenodd" fill="rgb(0,0,0)"/></g></svg>