<?xml version="1.0" encoding="UTF-8" standalone="no"?><!-- Generator: Gravit.io --><svg xmlns="http://www.w3.org/2000/svg" xmlns:xlink="http://www.w3.org/1999/xlink" style="isolation:isolate" viewBox="0 0 16 16" width="16pt" height="16pt"><defs><clipPath id="_clipPath_LrWc5XEgoaqPfiAg44gnmKBlC8cfxYQU"><rect width="16" height="16"/></clipPath></defs><g clip-path="url(#_clipPath_LrWc5XEgoaqPfiAg44gnmKBlC8cfxYQU)"><path d=" M 4 2 L 4 4 L 2 4 L 2 2 L 4 2 L 4 2 L 4 2 L 4 2 L 4 2 L 4 2 L 4 2 Z  M 14 2 L 14 4 L 12 4 L 12 2 L 14 2 L 14 2 L 14 2 L 14 2 L 14 2 L 14 2 Z  M 14 7 L 14 9 L 12 9 L 12 7 L 14 7 L 14 7 L 14 7 L 14 7 L 14 7 Z  M 9 7 L 9 9 L 7 9 L 7 7 L 9 7 L 9 7 L 9 7 L 9 7 Z  M 9 2 L 9 4 L 7 4 L 7 2 L 9 2 L 9 2 L 9 2 L 9 2 L 9 2 L 9 2 L 9 2 Z  M 4 7 L 4 9 L 2 9 L 2 7 L 4 7 L 4 7 L 4 7 Z  M 2 6 L 4 6 C 4.552 6 5 6.448 5 7 L 5 9 C 5 9.552 4.552 10 4 10 L 2 10 C 1.448 10 1 9.552 1 9 L 1 7 C 1 6.448 1.448 6 2 6 L 2 6 L 2 6 L 2 6 L 2 6 L 2 6 L 2 6 L 2 6 L 2 6 Z  M 12 1 L 14 1 C 14.552 1 15 1.448 15 2 L 15 4 C 15 4.552 14.552 5 14 5 L 12 5 C 11.448 5 11 4.552 11 4 L 11 2 C 11 1.448 11.448 1 12 1 L 12 1 L 12 1 L 12 1 L 12 1 L 12 1 L 12 1 L 12 1 L 12 1 L 12 1 L 12 1 L 12 1 Z  M 12 6 L 14 6 C 14.552 6 15 6.448 15 7 L 15 9 C 15 9.552 14.552 10 14 10 L 12 10 C 11.448 10 11 9.552 11 9 L 11 7 C 11 6.448 11.448 6 12 6 L 12 6 L 12 6 L 12 6 L 12 6 L 12 6 L 12 6 L 12 6 L 12 6 L 12 6 L 12 6 Z  M 7 6 L 9 6 C 9.552 6 10 6.448 10 7 L 10 9 C 10 9.552 9.552 10 9 10 L 7 10 C 6.448 10 6 9.552 6 9 L 6 7 C 6 6.448 6.448 6 7 6 L 7 6 L 7 6 L 7 6 L 7 6 L 7 6 L 7 6 L 7 6 L 7 6 L 7 6 Z  M 2 1 L 4 1 C 4.552 1 5 1.448 5 2 L 5 4 C 5 4.552 4.552 5 4 5 L 2 5 C 1.448 5 1 4.552 1 4 L 1 2 C 1 1.448 1.448 1 2 1 L 2 1 L 2 1 L 2 1 L 2 1 L 2 1 L 2 1 L 2 1 L 2 1 L 2 1 L 2 1 L 2 1 L 2 1 Z  M 7 1 L 9 1 C 9.552 1 10 1.448 10 2 L 10 4 C 10 4.552 9.552 5 9 5 L 7 5 C 6.448 5 6 4.552 6 4 L 6 2 C 6 1.448 6.448 1 7 1 L 7 1 L 7 1 L 7 1 L 7 1 L 7 1 L 7 1 L 7 1 L 7 1 L 7 1 L 7 1 L 7 1 L 7 1 Z  M 9 12 L 9 14 L 7 14 L 7 12 L 9 12 L 9 12 Z  M 7 11 L 9 11 C 9.552 11 10 11.448 10 12 L 10 14 C 10 14.552 9.552 15 9 15 L 7 15 C 6.448 15 6 14.552 6 14 L 6 12 C 6 11.448 6.448 11 7 11 L 7 11 L 7 11 L 7 11 L 7 11 L 7 11 L 7 11 L 7 11 Z " fill-rule="evenodd" fill="rgb(0,0,0)"/></g></svg>