<?xml version="1.0" standalone="no"?><!-- Generator: Gravit.io --><svg xmlns="http://www.w3.org/2000/svg" xmlns:xlink="http://www.w3.org/1999/xlink" style="isolation:isolate" viewBox="0 0 16 16" width="16" height="16"><defs><clipPath id="_clipPath_IdWGtkJxfMptSuH3rmCmYWcaVya8J7cY"><rect width="16" height="16"/></clipPath></defs><g clip-path="url(#_clipPath_IdWGtkJxfMptSuH3rmCmYWcaVya8J7cY)"><path d=" M 2 8 C 2 6.41 2.63 4.88 3.76 3.76 C 4.88 2.63 6.41 2 8 2 C 9.59 2 11.12 2.63 12.24 3.76 C 13.37 4.88 14 6.41 14 8 C 14 9.59 13.37 11.12 12.24 12.24 C 11.12 13.37 9.59 14 8 14 C 6.41 14 4.88 13.37 3.76 12.24 C 2.63 11.12 2 9.59 2 8 L 2 8 Z  M 1 8 C 1 4.137 4.137 1 8 1 C 11.863 1 15 4.137 15 8 C 15 11.863 11.863 15 8 15 C 4.137 15 1 11.863 1 8 L 1 8 Z  M 7 4 L 9 4 L 9 6 L 7 6 L 7 4 L 7 4 Z  M 7 7 L 9 7 L 9 12 L 7 12 L 7 7 L 7 7 Z " fill-rule="evenodd" fill="rgb(0,0,0)"/></g></svg>