<?xml version="1.0" standalone="no"?><!-- Generator: Gravit.io --><svg xmlns="http://www.w3.org/2000/svg" xmlns:xlink="http://www.w3.org/1999/xlink" style="isolation:isolate" viewBox="0 0 16 16" width="16" height="16"><defs><clipPath id="_clipPath_X4m9IgZMKgbmvdxAlDVzvyMO9AWAmVIA"><rect width="16" height="16"/></clipPath></defs><g clip-path="url(#_clipPath_X4m9IgZMKgbmvdxAlDVzvyMO9AWAmVIA)"><path d=" M 9.171 7 L 1 7 L 1 9 L 2 9 L 2 11 L 3 11 L 3 9 L 4 9 L 4 10 L 5 10 L 5 9 L 9.171 9 L 9.171 9 C 9.583 10.165 10.695 11 12 11 C 13.656 11 15 9.656 15 8 C 15 6.344 13.656 5 12 5 C 10.695 5 9.583 5.835 9.171 7 Z  M 11 8 C 11 7.73 11.11 7.48 11.29 7.29 C 11.48 7.11 11.73 7 12 7 C 12.27 7 12.52 7.11 12.71 7.29 C 12.89 7.48 13 7.73 13 8 C 13 8.27 12.89 8.52 12.71 8.71 C 12.52 8.89 12.27 9 12 9 C 11.73 9 11.48 8.89 11.29 8.71 C 11.11 8.52 11 8.27 11 8 L 11 8 Z " fill-rule="evenodd" fill="rgb(0,0,0)"/></g></svg>