<?xml version="1.0" encoding="UTF-8" standalone="no"?><!-- Generator: Gravit.io --><svg xmlns="http://www.w3.org/2000/svg" xmlns:xlink="http://www.w3.org/1999/xlink" style="isolation:isolate" viewBox="0 0 16 16" width="16pt" height="16pt"><defs><clipPath id="_clipPath_F56e7mqaZKUOp5ShUOdTTUFFtkYjL42z"><rect width="16" height="16"/></clipPath></defs><g clip-path="url(#_clipPath_F56e7mqaZKUOp5ShUOdTTUFFtkYjL42z)"><path d=" M 5.172 5.414 L 2.343 8.242 C 0.782 9.803 0.782 12.338 2.343 13.899 L 2.343 13.899 C 3.904 15.46 6.439 15.46 8 13.899 L 10.828 11.07 L 11.536 10.363 L 11.536 10.363 L 13.303 8.596 C 13.498 8.4 13.498 8.084 13.303 7.888 C 13.108 7.693 12.791 7.693 12.596 7.888 L 10.828 9.656 L 10.828 9.656 L 10.121 10.363 L 7.293 13.192 C 6.727 13.757 5.964 14.069 5.172 14.069 C 4.38 14.069 3.616 13.757 3.05 13.192 C 2.485 12.626 2.173 11.862 2.173 11.07 C 2.173 10.279 2.485 9.515 3.05 8.949 L 3.05 8.949 L 6.586 5.414 L 6.586 5.414 L 9.414 2.585 L 9.414 2.585 C 9.789 2.21 10.298 1.998 10.828 2.005 C 11.359 1.998 11.868 2.21 12.243 2.585 L 12.243 2.585 C 12.617 2.96 12.83 3.469 12.822 3.999 C 12.83 4.53 12.617 5.039 12.243 5.414 L 10.828 6.828 L 10.828 6.828 L 8.707 8.949 L 6.586 11.07 C 6.395 11.261 6.14 11.36 5.879 11.367 C 5.617 11.36 5.362 11.261 5.172 11.07 C 4.981 10.88 4.882 10.625 4.875 10.363 C 4.882 10.102 4.981 9.847 5.172 9.656 L 8.707 6.121 L 8.707 6.121 L 9.414 5.414 L 10.475 4.353 C 10.67 4.158 10.67 3.841 10.475 3.646 C 10.28 3.451 9.963 3.451 9.768 3.646 L 8.707 4.707 L 8 5.414 L 4.464 8.949 L 4.464 8.949 C 3.684 9.73 3.684 10.997 4.464 11.778 L 4.464 11.778 C 5.245 12.558 6.512 12.558 7.293 11.778 L 9.414 9.656 L 11.536 7.535 L 12.95 6.121 C 14.121 4.95 14.121 3.049 12.95 1.878 L 12.95 1.878 L 12.95 1.878 C 11.779 0.707 9.878 0.707 8.707 1.878 L 5.879 4.707 L 5.172 5.414 Z " fill="rgb(0,0,0)"/></g></svg>