<?xml version="1.0" encoding="UTF-8" standalone="no"?><!-- Generator: Gravit.io --><svg xmlns="http://www.w3.org/2000/svg" xmlns:xlink="http://www.w3.org/1999/xlink" style="isolation:isolate" viewBox="0 0 16 16" width="16pt" height="16pt"><defs><clipPath id="_clipPath_EzHUucSS5RoEtxLxCPaGUmtTbBri2nEv"><rect width="16" height="16"/></clipPath></defs><g clip-path="url(#_clipPath_EzHUucSS5RoEtxLxCPaGUmtTbBri2nEv)"><path d=" M 4 5 C 4 4.47 4.21 3.96 4.59 3.59 C 4.96 3.21 5.47 3 6 3 L 6 3 L 7 3 C 7.53 3 8.04 3.21 8.41 3.59 C 8.79 3.96 9 4.47 9 5 L 9 9 C 9 9.27 8.89 9.52 8.71 9.71 C 8.52 9.89 8.27 10 8 10 C 7.73 10 7.48 9.89 7.29 9.71 C 7.11 9.52 7 9.27 7 9 L 7 6 C 7 5.448 6.552 5 6 5 C 5.448 5 5 5.448 5 6 L 5 9 C 5 10.656 6.344 12 8 12 L 8 12 C 9.656 12 11 10.656 11 9 L 11 5 C 11 2.792 9.208 1 7 1 L 6 1 L 6 1 C 3.792 1 2 2.792 2 5 L 2 9 C 2 12.311 4.689 15 8 15 L 8 15 C 11.311 15 14 12.311 14 9 L 14 7 L 14 7 C 14 6.448 13.552 6 13 6 C 12.448 6 12 6.448 12 7 L 12 9 C 12 10.06 11.58 11.08 10.83 11.83 C 10.08 12.58 9.06 13 8 13 C 6.94 13 5.92 12.58 5.17 11.83 C 4.42 11.08 4 10.06 4 9 L 4 5 Z " fill="rgb(0,0,0)"/></g></svg>