<?xml version="1.0" encoding="UTF-8" standalone="no"?><!-- Generator: Gravit.io --><svg xmlns="http://www.w3.org/2000/svg" xmlns:xlink="http://www.w3.org/1999/xlink" style="isolation:isolate" viewBox="0 0 16 16" width="16pt" height="16pt"><defs><clipPath id="_clipPath_YsdbUL8xBkFSZxRoDo5NV2rGh7ZJWgyZ"><rect width="16" height="16"/></clipPath></defs><g clip-path="url(#_clipPath_YsdbUL8xBkFSZxRoDo5NV2rGh7ZJWgyZ)"><path d=" M 7 10 L 7 13 L 7 13 C 7 14.104 7.896 15 9 15 L 9 15 C 10.104 15 11 14.104 11 13 L 11 7 L 11 6 L 11 6 L 11 4 C 11 2.344 9.656 1 8 1 L 8 1 L 8 1 C 6.344 1 5 2.344 5 4 L 5 6 L 6 6 L 6 4 L 6 4 C 6 3.47 6.21 2.96 6.59 2.59 C 6.96 2.21 7.47 2 8 2 L 8 2 C 8.53 2 9.04 2.21 9.41 2.59 C 9.79 2.96 10 3.47 10 4 L 10 6 L 10 6 L 10 7 L 10 13 C 10 13.27 9.89 13.52 9.71 13.71 C 9.52 13.89 9.27 14 9 14 C 8.73 14 8.48 13.89 8.29 13.71 C 8.11 13.52 8 13.27 8 13 L 8 10 L 8 9 L 8 5.5 C 8 5.224 7.776 5 7.5 5 C 7.224 5 7 5.224 7 5.5 L 7 9 L 7 10 L 7 10 L 7 10 Z " fill="rgb(0,0,0)"/></g></svg>