<?xml version="1.0" encoding="UTF-8" standalone="no"?><!-- Generator: Gravit.io --><svg xmlns="http://www.w3.org/2000/svg" xmlns:xlink="http://www.w3.org/1999/xlink" style="isolation:isolate" viewBox="0 0 16 16" width="16pt" height="16pt"><defs><clipPath id="_clipPath_xNN6mEtIVzWEI8JIteUmBgBk9R4Ja7sb"><rect width="16" height="16"/></clipPath></defs><g clip-path="url(#_clipPath_xNN6mEtIVzWEI8JIteUmBgBk9R4Ja7sb)"><path d=" M 10 6 L 10 5 C 10 4.47 9.79 3.96 9.41 3.59 C 9.04 3.21 8.53 3 8 3 L 7 3 L 7 3 C 6.47 3 5.96 3.21 5.59 3.59 C 5.21 3.96 5 4.47 5 5 L 5 7 L 3 7 L 3 5 C 3 2.792 4.792 1 7 1 L 7 1 L 8 1 C 10.208 1 12 2.792 12 5 L 12 6 L 12 7 L 12 7 L 12 12 C 12 13.656 10.656 15 9 15 L 9 15 C 7.344 15 6 13.656 6 12 L 6 7 C 6 6.448 6.448 6 7 6 C 7.552 6 8 6.448 8 7 L 8 12 C 8 12.27 8.11 12.52 8.29 12.71 C 8.48 12.89 8.73 13 9 13 C 9.27 13 9.52 12.89 9.71 12.71 C 9.89 12.52 10 12.27 10 12 L 10 7 L 10 6 Z " fill="rgb(0,0,0)"/></g></svg>