<?xml version="1.0" encoding="UTF-8" standalone="no"?><!-- Generator: Gravit.io --><svg xmlns="http://www.w3.org/2000/svg" xmlns:xlink="http://www.w3.org/1999/xlink" style="isolation:isolate" viewBox="0 0 16 16" width="16pt" height="16pt"><defs><clipPath id="_clipPath_AdKEbzhIX7WkT7HjGUVLrfeShvoAZJXe"><rect width="16" height="16"/></clipPath></defs><g clip-path="url(#_clipPath_AdKEbzhIX7WkT7HjGUVLrfeShvoAZJXe)"><path d=" M 7.293 3.585 C 7.668 3.21 8.177 2.998 8.707 3.005 C 9.237 2.998 9.747 3.21 10.121 3.585 L 10.121 3.585 L 10.828 4.292 C 11.203 4.667 11.415 5.176 11.408 5.706 C 11.415 6.237 11.203 6.746 10.828 7.121 L 8 9.949 C 7.809 10.14 7.555 10.239 7.293 10.246 C 7.031 10.239 6.777 10.14 6.586 9.949 C 6.395 9.758 6.296 9.503 6.289 9.242 C 6.296 8.98 6.395 8.726 6.586 8.535 L 8.707 6.413 C 9.097 6.023 9.097 5.389 8.707 4.999 C 8.317 4.609 7.683 4.609 7.293 4.999 L 5.172 7.121 C 4.001 8.291 4.001 10.192 5.172 11.363 L 5.172 11.363 C 6.342 12.534 8.243 12.534 9.414 11.363 L 12.243 8.535 C 13.804 6.974 13.804 4.439 12.243 2.878 L 11.536 2.171 L 11.536 2.171 C 9.974 0.61 7.44 0.61 5.879 2.171 L 3.05 4.999 C 0.709 7.341 0.709 11.143 3.05 13.484 L 3.05 13.484 C 5.392 15.826 9.194 15.826 11.536 13.484 L 12.95 12.07 L 12.95 12.07 C 13.34 11.68 13.34 11.046 12.95 10.656 C 12.559 10.266 11.926 10.266 11.536 10.656 L 10.121 12.07 C 9.372 12.82 8.354 13.244 7.293 13.244 C 6.232 13.244 5.214 12.82 4.464 12.07 C 3.715 11.321 3.291 10.303 3.291 9.242 C 3.291 8.181 3.715 7.163 4.464 6.413 L 7.293 3.585 Z " fill="rgb(0,0,0)"/></g></svg>