<?xml version="1.0" encoding="UTF-8" standalone="no"?><!-- Generator: Gravit.io --><svg xmlns="http://www.w3.org/2000/svg" xmlns:xlink="http://www.w3.org/1999/xlink" style="isolation:isolate" viewBox="0 0 16 16" width="16pt" height="16pt"><defs><clipPath id="_clipPath_osCxmj1bm0EaS0v408zDhwA046SA18fv"><rect width="16" height="16"/></clipPath></defs><g clip-path="url(#_clipPath_osCxmj1bm0EaS0v408zDhwA046SA18fv)"><path d=" M 4 11 C 4 13.208 5.792 15 8 15 L 8 15 C 10.208 15 12 13.208 12 11 L 12 5.5 C 12 5.224 11.776 5 11.5 5 C 11.224 5 11 5.224 11 5.5 L 11 11 C 11 11.8 10.68 12.56 10.12 13.12 C 9.56 13.68 8.8 14 8 14 C 7.2 14 6.44 13.68 5.88 13.12 C 5.32 12.56 5 11.8 5 11 L 5 11 L 5 4 L 5 4 C 5 3.47 5.21 2.96 5.59 2.59 C 5.96 2.21 6.47 2 7 2 L 7 2 C 7.53 2 8.04 2.21 8.41 2.59 C 8.79 2.96 9 3.47 9 4 L 9 10 C 9 10.27 8.89 10.52 8.71 10.71 C 8.52 10.89 8.27 11 8 11 C 7.73 11 7.48 10.89 7.29 10.71 C 7.11 10.52 7 10.27 7 10 L 7 4.5 C 7 4.224 6.776 4 6.5 4 C 6.224 4 6 4.224 6 4.5 L 6 10 L 6 10 C 6 11.104 6.896 12 8 12 L 8 12 C 9.104 12 10 11.104 10 10 L 10 4 C 10 2.344 8.656 1 7 1 L 7 1 L 7 1 C 5.344 1 4 2.344 4 4 L 4 11 Z " fill="rgb(0,0,0)"/></g></svg>