<?xml version="1.0" standalone="no"?><!-- Generator: Gravit.io --><svg xmlns="http://www.w3.org/2000/svg" xmlns:xlink="http://www.w3.org/1999/xlink" style="isolation:isolate" viewBox="0 0 16 16" width="16" height="16"><defs><clipPath id="_clipPath_2xlzmU4j0fZHTirV8WlxwRm4kBf4VkFC"><rect width="16" height="16"/></clipPath></defs><g clip-path="url(#_clipPath_2xlzmU4j0fZHTirV8WlxwRm4kBf4VkFC)"><path d=" M 11 3 L 14 3 L 14 15 L 9 15 L 9 15 L 9 15 L 9 15 L 9 7 L 4 7 L 4 3 L 4 3 L 7 3 L 7 2 C 7 1.448 7.448 1 8 1 L 10 1 C 10.552 1 11 1.448 11 2 L 11 3 L 11 3 Z  M 8 15 L 8 15 L 2 15 L 2 8 L 2 8 L 8 8 L 8 15 L 8 15 L 8 15 Z  M 8 2 L 10 2 L 10 3 L 8 3 L 8 2 Z " fill-rule="evenodd" fill="rgb(0,0,0)"/></g></svg>