<?xml version="1.0" standalone="no"?><!-- Generator: Gravit.io --><svg xmlns="http://www.w3.org/2000/svg" xmlns:xlink="http://www.w3.org/1999/xlink" style="isolation:isolate" viewBox="0 0 16 16" width="16" height="16"><defs><clipPath id="_clipPath_6ognzUQBczOzF3YBDJffjphX5UScxYJO"><rect width="16" height="16"/></clipPath></defs><g clip-path="url(#_clipPath_6ognzUQBczOzF3YBDJffjphX5UScxYJO)"><path d=" M 9 7 L 9 2 C 9 1.448 8.552 1 8 1 L 8 1 C 7.448 1 7 1.448 7 2 L 7 7 L 2 7 C 1.448 7 1 7.448 1 8 L 1 8 C 1 8.552 1.448 9 2 9 L 7 9 L 7 14 C 7 14.552 7.448 15 8 15 L 8 15 C 8.552 15 9 14.552 9 14 L 9 9 L 14 9 C 14.552 9 15 8.552 15 8 L 15 8 C 15 7.448 14.552 7 14 7 L 9 7 Z " fill="rgb(0,0,0)"/></g></svg>