<?xml version="1.0" standalone="no"?><!-- Generator: Gravit.io --><svg xmlns="http://www.w3.org/2000/svg" xmlns:xlink="http://www.w3.org/1999/xlink" style="isolation:isolate" viewBox="0 0 16 16" width="16" height="16"><defs><clipPath id="_clipPath_bmlYYymRp4YCpHEc1DnhTmKXoAs76KvA"><rect width="16" height="16"/></clipPath></defs><g clip-path="url(#_clipPath_bmlYYymRp4YCpHEc1DnhTmKXoAs76KvA)"><path d=" M 5 15 L 6 15 L 10 15 L 10 15 L 10 15 L 10 15 L 11 15 L 11 15 C 12.104 15 13 14.104 13 13 L 13 13 L 13 13 L 13 13 L 13 5 L 14 5 L 14 4 L 2 4 L 2 5 L 3 5 L 3 13 L 3 13 L 3 13 L 3 13 C 3 14.104 3.896 15 5 15 L 5 15 Z  M 6 13 L 6 5 L 7 5 L 7 13 L 6 13 L 6 13 L 6 13 Z  M 10 2 L 10 1 L 6 1 L 6 2 L 1 2 L 1 3 L 15 3 L 15 2 L 10 2 L 10 2 L 10 2 L 10 2 L 10 2 Z  M 10 12 L 10 5 L 9 5 L 9 12 L 9 12 L 10 12 L 10 12 L 10 12 L 10 12 L 10 12 L 10 12 Z " fill-rule="evenodd" fill="rgb(0,0,0)"/></g></svg>