<?xml version="1.0" standalone="no"?><!-- Generator: Gravit.io --><svg xmlns="http://www.w3.org/2000/svg" xmlns:xlink="http://www.w3.org/1999/xlink" style="isolation:isolate" viewBox="0 0 16 16" width="16" height="16"><defs><clipPath id="_clipPath_d9IKclXt7vpuyucrghfjhIja1WVNxOiE"><rect width="16" height="16"/></clipPath></defs><g clip-path="url(#_clipPath_d9IKclXt7vpuyucrghfjhIja1WVNxOiE)"><path d=" M 6 5 L 6 13 L 6 13 L 7 13 L 7 5 L 9 5 L 9 12 L 10 12 L 10 5 L 10 5 L 12 5 L 12 5 L 12 12 L 12 12.65 C 12 13.01 11.86 13.35 11.61 13.61 C 11.35 13.86 11.01 14 10.65 14 L 5.35 14 C 4.99 14 4.65 13.86 4.39 13.61 C 4.14 13.35 4 13.01 4 12.65 L 4 12 L 4 12 L 4 5 L 4 5 L 6 5 Z  M 3 12 L 3 5 L 2 5 L 2 4 L 2 4 L 14 4 L 14 5 L 13 5 L 13 12 L 13 12.655 C 13 13.949 11.949 15 10.655 15 L 5.345 15 C 4.051 15 3 13.949 3 12.655 L 3 12 Z  M 10 2 L 10 1 L 6 1 L 6 2 L 1 2 L 1 3 L 15 3 L 15 2 L 10 2 L 10 2 L 10 2 L 10 2 L 10 2 Z " fill-rule="evenodd" fill="rgb(0,0,0)"/></g></svg>