<?xml version="1.0" standalone="no"?><!-- Generator: Gravit.io --><svg xmlns="http://www.w3.org/2000/svg" xmlns:xlink="http://www.w3.org/1999/xlink" style="isolation:isolate" viewBox="0 0 16 16" width="16" height="16"><defs><clipPath id="_clipPath_4eG3ZTMQocdzou1HF8IfVBSDuCGBAdUk"><rect width="16" height="16"/></clipPath></defs><g clip-path="url(#_clipPath_4eG3ZTMQocdzou1HF8IfVBSDuCGBAdUk)"><path d=" M 3 5 L 4 5 L 4 6 L 3 6 L 3 5 L 3 5 L 3 5 L 3 5 L 3 5 L 3 5 L 3 5 L 3 5 L 3 5 Z  M 5 5 L 6 5 L 6 6 L 5 6 L 5 5 L 5 5 L 5 5 L 5 5 L 5 5 L 5 5 L 5 5 L 5 5 Z  M 4 6 L 5 6 L 5 10 L 4 10 L 4 6 L 4 6 L 4 6 L 4 6 L 4 6 L 4 6 Z  M 3 10 L 4 10 L 4 11 L 3 11 L 3 10 L 3 10 L 3 10 L 3 10 Z  M 5 10 L 6 10 L 6 11 L 5 11 L 5 10 L 5 10 Z  M 2 4 L 14 4 L 14 12 L 2 12 L 2 4 L 2 4 Z  M 1 3 L 15 3 L 15 13 L 1 13 L 1 3 L 1 3 Z " fill-rule="evenodd" fill="rgb(0,0,0)"/></g></svg>