<?xml version="1.0" encoding="UTF-8" standalone="no"?><!-- Generator: Gravit.io --><svg xmlns="http://www.w3.org/2000/svg" xmlns:xlink="http://www.w3.org/1999/xlink" style="isolation:isolate" viewBox="0 0 16 16" width="16pt" height="16pt"><defs><clipPath id="_clipPath_9ir3OSzFsxgFrQlNJOKaX96Eh5cxpceX"><rect width="16" height="16"/></clipPath></defs><g clip-path="url(#_clipPath_9ir3OSzFsxgFrQlNJOKaX96Eh5cxpceX)"><path d=" M 3.058 7.287 C 2.411 6.736 2 5.916 2 5 C 2 4.639 2.064 4.293 2.186 3.975 L 2.186 3.975 L 2.186 3.975 L 2.186 3.975 C 1.51 3.824 1 3.221 1 2.5 C 1 1.672 1.672 1 2.5 1 C 3.221 1 3.824 1.51 3.975 2.186 C 4.293 2.064 4.639 2 5 2 C 5.916 2 6.736 2.411 7.287 3.058 C 5.097 3.365 3.365 5.097 3.058 7.287 L 3.058 7.287 Z  M 8.713 3.058 C 9.264 2.411 10.084 2 11 2 C 11.361 2 11.707 2.064 12.025 2.186 L 12.025 2.186 L 12.025 2.186 L 12.025 2.186 C 12.176 1.51 12.779 1 13.5 1 C 14.328 1 15 1.672 15 2.5 C 15 3.221 14.49 3.824 13.814 3.975 C 13.936 4.293 14 4.639 14 5 C 14 5.916 13.589 6.736 12.942 7.287 C 12.635 5.097 10.903 3.365 8.713 3.058 L 8.713 3.058 Z  M 12.942 8.713 C 13.589 9.264 14 10.084 14 11 C 14 11.361 13.936 11.707 13.814 12.025 L 13.814 12.025 L 13.814 12.025 C 14.49 12.176 15 12.779 15 13.5 C 15 14.328 14.328 15 13.5 15 C 12.779 15 12.176 14.49 12.025 13.814 C 11.707 13.936 11.361 14 11 14 C 10.084 14 9.264 13.589 8.713 12.942 C 10.903 12.635 12.635 10.903 12.942 8.713 L 12.942 8.713 Z  M 7.287 12.942 C 6.736 13.589 5.916 14 5 14 C 4.639 14 4.293 13.936 3.975 13.814 L 3.975 13.814 C 3.824 14.49 3.221 15 2.5 15 C 1.672 15 1 14.328 1 13.5 C 1 12.779 1.51 12.176 2.186 12.025 C 2.064 11.707 2 11.361 2 11 C 2 10.084 2.411 9.264 3.058 8.713 C 3.365 10.903 5.097 12.635 7.287 12.942 L 7.287 12.942 Z  M 4 8 C 4 5.792 5.792 4 8 4 C 10.208 4 12 5.792 12 8 C 12 10.208 10.208 12 8 12 C 5.792 12 4 10.208 4 8 Z " fill-rule="evenodd" fill="rgb(0,0,0)"/></g></svg>