<?xml version="1.0" encoding="UTF-8" standalone="no"?><!-- Generator: Gravit.io --><svg xmlns="http://www.w3.org/2000/svg" xmlns:xlink="http://www.w3.org/1999/xlink" style="isolation:isolate" viewBox="0 0 16 16" width="16pt" height="16pt"><defs><clipPath id="_clipPath_mFF1DA5JTjLTk68p4ki6Z0JPsKMW6DhC"><rect width="16" height="16"/></clipPath></defs><g clip-path="url(#_clipPath_mFF1DA5JTjLTk68p4ki6Z0JPsKMW6DhC)"><path d=" M 3.372 6.144 C 3.867 4.875 4.875 3.867 6.144 3.372 C 5.821 3.132 5.42 3 5 3 C 4.77 3 4.54 3.04 4.33 3.12 C 4.06 3.22 3.76 3.2 3.5 3.07 C 3.25 2.93 3.06 2.69 3 2.4 C 2.95 2.17 2.74 2 2.5 2 C 2.37 2 2.24 2.05 2.15 2.15 C 2.05 2.24 2 2.37 2 2.5 C 2 2.74 2.17 2.95 2.4 3 C 2.69 3.06 2.93 3.25 3.07 3.5 C 3.2 3.76 3.22 4.06 3.12 4.33 C 3.04 4.54 3 4.77 3 5 C 3 5.42 3.132 5.821 3.372 6.144 L 3.372 6.144 Z  M 9.856 3.372 C 11.125 3.867 12.133 4.875 12.628 6.144 C 12.868 5.821 13 5.42 13 5 C 13 4.77 12.96 4.54 12.88 4.33 C 12.78 4.06 12.8 3.76 12.93 3.5 C 13.07 3.25 13.31 3.06 13.6 3 C 13.83 2.95 14 2.74 14 2.5 C 14 2.37 13.95 2.24 13.85 2.15 C 13.76 2.05 13.63 2 13.5 2 C 13.26 2 13.05 2.17 13 2.4 C 12.94 2.69 12.75 2.93 12.5 3.07 C 12.24 3.2 11.94 3.22 11.67 3.12 C 11.46 3.04 11.27 3 11 3 C 10.58 3 10.179 3.132 9.856 3.372 Z  M 12.628 9.856 C 12.133 11.125 11.125 12.133 9.856 12.628 C 10.179 12.868 10.58 13 11 13 C 11.23 13 11.46 12.96 11.67 12.88 C 11.94 12.78 12.24 12.8 12.5 12.93 C 12.75 13.07 12.94 13.31 13 13.6 C 13.05 13.83 13.26 14 13.5 14 C 13.63 14 13.76 13.95 13.85 13.85 C 13.95 13.76 14 13.63 14 13.5 C 14 13.26 13.83 13.05 13.6 13 C 13.31 12.94 13.07 12.75 12.93 12.5 C 12.8 12.24 12.78 11.94 12.88 11.67 C 12.96 11.46 13 11.23 13 11 C 13 10.58 12.868 10.179 12.628 9.856 Z  M 6.144 12.628 C 4.875 12.133 3.867 11.125 3.372 9.856 C 3.132 10.179 3 10.58 3 11 C 3 11.23 3.04 11.46 3.12 11.67 C 3.22 11.94 3.2 12.24 3.07 12.5 C 2.93 12.75 2.69 12.94 2.4 13 C 2.17 13.05 2 13.26 2 13.5 C 2 13.63 2.05 13.76 2.15 13.85 C 2.24 13.95 2.37 14 2.5 14 C 2.74 14 2.95 13.83 3 13.6 C 3.06 13.31 3.25 13.07 3.5 12.93 C 3.76 12.8 4.06 12.78 4.33 12.88 C 4.54 12.96 4.77 13 5 13 L 5 13 C 5.42 13 5.821 12.868 6.144 12.628 Z  M 4 8 C 4 6.94 4.42 5.92 5.17 5.17 C 5.92 4.42 6.94 4 8 4 C 9.06 4 10.08 4.42 10.83 5.17 C 11.58 5.92 12 6.94 12 8 C 12 9.06 11.58 10.08 10.83 10.83 C 10.08 11.58 9.06 12 8 12 C 6.94 12 5.92 11.58 5.17 10.83 C 4.42 10.08 4 9.06 4 8 L 4 8 Z  M 5 14 C 4.639 14 4.293 13.936 3.975 13.814 C 3.824 14.49 3.221 15 2.5 15 C 1.672 15 1 14.328 1 13.5 C 1 12.779 1.51 12.176 2.186 12.025 C 2.064 11.707 2 11.361 2 11 C 2 10.084 2.411 9.264 3.058 8.713 C 3.017 8.482 3 8.243 3 8 L 3 8 C 3 7.757 3.017 7.518 3.058 7.287 C 2.411 6.736 2 5.916 2 5 C 2 4.639 2.064 4.293 2.186 3.975 C 1.51 3.824 1 3.221 1 2.5 C 1 1.672 1.672 1 2.5 1 C 3.221 1 3.824 1.51 3.975 2.186 C 4.293 2.064 4.639 2 5 2 C 5.916 2 6.736 2.411 7.287 3.058 C 7.518 3.017 7.757 3 8 3 L 8 3 C 8.243 3 8.482 3.017 8.713 3.058 C 9.264 2.411 10.084 2 11 2 C 11.361 2 11.707 2.064 12.025 2.186 C 12.176 1.51 12.779 1 13.5 1 C 14.328 1 15 1.672 15 2.5 C 15 3.221 14.49 3.824 13.814 3.975 C 13.936 4.293 14 4.639 14 5 C 14 5.916 13.589 6.736 12.942 7.287 C 12.983 7.518 13 7.757 13 8 L 13 8 C 13 8.243 12.983 8.482 12.942 8.713 C 13.589 9.264 14 10.084 14 11 C 14 11.361 13.936 11.707 13.814 12.025 C 14.49 12.176 15 12.779 15 13.5 C 15 14.328 14.328 15 13.5 15 C 12.779 15 12.176 14.49 12.025 13.814 C 11.707 13.936 11.361 14 11 14 C 10.084 14 9.264 13.589 8.713 12.942 C 8.482 12.983 8.243 13 8 13 L 8 13 C 7.757 13 7.518 12.983 7.287 12.942 C 6.736 13.589 5.916 14 5 14 L 5 14 L 5 14 Z " fill-rule="evenodd" fill="rgb(0,0,0)"/></g></svg>