<?xml version="1.0" standalone="no"?><!-- Generator: Gravit.io --><svg xmlns="http://www.w3.org/2000/svg" xmlns:xlink="http://www.w3.org/1999/xlink" style="isolation:isolate" viewBox="0 0 16 16" width="16" height="16"><defs><clipPath id="_clipPath_u2VDv5IahfkOH6e9pk1Hi4zrOprPIHqP"><rect width="16" height="16"/></clipPath></defs><g clip-path="url(#_clipPath_u2VDv5IahfkOH6e9pk1Hi4zrOprPIHqP)"><path d=" M 7 8 C 7 7.73 7.11 7.48 7.29 7.29 C 7.48 7.11 7.73 7 8 7 C 8.27 7 8.52 7.11 8.71 7.29 C 8.89 7.48 9 7.73 9 8 C 9 8.27 8.89 8.52 8.71 8.71 C 8.52 8.89 8.27 9 8 9 C 7.73 9 7.48 8.89 7.29 8.71 C 7.11 8.52 7 8.27 7 8 L 7 8 Z  M 6 8 C 6 6.896 6.896 6 8 6 C 9.104 6 10 6.896 10 8 C 10 9.104 9.104 10 8 10 C 6.896 10 6 9.104 6 8 L 6 8 Z  M 5.078 10.734 L 5.266 10.922 C 6.005 11.614 6.984 12 8 12 L 8 12 C 9.016 12 9.995 11.614 10.734 10.922 L 10.734 10.922 L 10.922 10.734 C 11.614 9.995 12 9.016 12 8 L 12 8 C 12 6.984 11.614 6.005 10.922 5.266 L 10.734 5.078 C 9.995 4.386 9.016 4 8 4 L 8 4 C 6.984 4 6.005 4.386 5.266 5.078 L 5.266 5.078 L 5.078 5.266 C 4.386 6.005 4 6.984 4 8 L 4 8 L 4 8 L 4 8 L 4 8 C 4 9.016 4.386 9.995 5.078 10.734 L 5.078 10.734 Z  M 3.829 10.757 L 3.05 11.536 C 2.66 11.926 2.66 12.559 3.05 12.95 L 3.05 12.95 C 3.441 13.34 4.074 13.34 4.464 12.95 L 5.243 12.171 C 5.768 12.519 6.362 12.77 7 12.9 L 7 12.9 L 7 14 C 7 14.552 7.448 15 8 15 L 8 15 L 8 15 L 8 15 C 8.552 15 9 14.552 9 14 L 9 12.9 C 9.638 12.77 10.232 12.519 10.757 12.171 L 11.536 12.95 C 11.926 13.34 12.559 13.34 12.95 12.95 L 12.95 12.95 L 12.95 12.95 L 12.95 12.95 C 13.34 12.559 13.34 11.926 12.95 11.536 L 12.171 10.757 C 12.519 10.232 12.77 9.638 12.9 9 L 12.9 9 L 14 9 C 14.552 9 15 8.552 15 8 L 15 8 L 15 8 L 15 8 C 15 7.448 14.552 7 14 7 L 12.9 7 C 12.77 6.362 12.519 5.768 12.171 5.243 L 12.95 4.464 C 13.34 4.074 13.34 3.441 12.95 3.05 L 12.95 3.05 L 12.95 3.05 C 12.559 2.66 11.926 2.66 11.536 3.05 L 10.757 3.829 C 10.232 3.481 9.638 3.23 9 3.1 L 9 3.1 L 9 2 C 9 1.448 8.552 1 8 1 L 8 1 C 7.448 1 7 1.448 7 2 L 7 3.1 C 6.362 3.23 5.768 3.481 5.243 3.829 L 4.464 3.05 C 4.074 2.66 3.441 2.66 3.05 3.05 L 3.05 3.05 L 3.05 3.05 C 2.66 3.441 2.66 4.074 3.05 4.464 L 3.829 5.243 C 3.481 5.768 3.23 6.362 3.1 7 L 2 7 C 1.448 7 1 7.448 1 8 L 1 8 L 1 8 L 1 8 C 1 8.552 1.448 9 2 9 L 3.1 9 C 3.23 9.638 3.481 10.232 3.829 10.757 L 3.829 10.757 Z " fill-rule="evenodd" fill="rgb(0,0,0)"/></g></svg>