<?xml version="1.0" standalone="no"?><!-- Generator: Gravit.io --><svg xmlns="http://www.w3.org/2000/svg" xmlns:xlink="http://www.w3.org/1999/xlink" style="isolation:isolate" viewBox="0 0 16 16" width="16" height="16"><defs><clipPath id="_clipPath_ii89ZQldNOZSV5yW30khwp6WAX6znHhw"><rect width="16" height="16"/></clipPath></defs><g clip-path="url(#_clipPath_ii89ZQldNOZSV5yW30khwp6WAX6znHhw)"><path d=" M 13 13.084 L 14.293 11.791 L 15 12.498 L 13.207 14.291 L 13.209 14.293 L 12.502 15 L 10 12.498 L 10.707 11.791 L 12 13.084 L 12 1 L 13 1 L 13 13.084 L 13 13.084 L 13 13.084 Z  M 3.945 12 L 3.5 10.66 L 3.5 10.66 L 3.055 12 L 3.945 12 L 3.945 12 L 3.945 12 L 3.945 12 L 3.945 12 L 3.945 12 L 3.945 12 Z  M 1 6 L 1 7 L 6 7 L 6 6 L 2.498 6 L 6 2 L 6 1 L 1 1 L 1 2 L 4.502 2 L 1 6 L 1 6 L 1 6 Z  M 5 15 L 4.278 13 L 4.278 13 L 2.722 13 L 2 15 L 1 15 L 3 9 L 4 9 L 4 9 L 4 9 L 6 15 L 5 15 L 5 15 L 5 15 L 5 15 L 5 15 L 5 15 Z " fill-rule="evenodd" fill="rgb(0,0,0)"/></g></svg>