<?xml version="1.0" standalone="no"?><!-- Generator: Gravit.io --><svg xmlns="http://www.w3.org/2000/svg" xmlns:xlink="http://www.w3.org/1999/xlink" style="isolation:isolate" viewBox="0 0 16 16" width="16" height="16"><defs><clipPath id="_clipPath_PBIhtKZ7Ib8luRIRnaP3snaABHt19k95"><rect width="16" height="16"/></clipPath></defs><g clip-path="url(#_clipPath_PBIhtKZ7Ib8luRIRnaP3snaABHt19k95)"><path d=" M 11.02 11.329 L 10.803 11.08 C 10.441 10.663 9.809 10.619 9.392 10.981 L 9.392 10.981 C 8.975 11.343 8.931 11.976 9.293 12.392 L 11.262 14.656 C 11.33 14.734 11.407 14.799 11.494 14.844 C 11.529 14.875 11.568 14.895 11.613 14.902 C 11.685 14.947 11.765 14.971 11.847 14.978 C 11.905 14.994 11.965 15 12.024 14.991 C 12.083 15 12.144 14.994 12.202 14.978 C 12.283 14.971 12.363 14.947 12.435 14.902 C 12.48 14.895 12.519 14.875 12.555 14.844 C 12.641 14.799 12.719 14.734 12.787 14.656 L 14.755 12.392 C 15.117 11.976 15.073 11.343 14.656 10.981 L 14.656 10.981 C 14.24 10.619 13.608 10.663 13.245 11.08 L 13.02 11.34 L 13.02 2 C 13.02 1.448 12.572 1 12.02 1 L 12.02 1 C 11.468 1 11.02 1.448 11.02 2 L 11.02 11.329 L 11.02 11.329 Z  M 1 14 L 1 15 L 6 15 L 6 14 L 2.498 14 L 6 10 L 6 9 L 1 9 L 1 10 L 4.502 10 L 1 14 L 1 14 L 1 14 L 1 14 L 1 14 Z  M 3.945 4 L 3.5 2.66 L 3.5 2.66 L 3.055 4 L 3.945 4 L 3.945 4 L 3.945 4 L 3.945 4 L 3.945 4 L 3.945 4 L 3.945 4 L 3.945 4 Z  M 5 7 L 4.278 5 L 4.278 5 L 2.722 5 L 2 7 L 1 7 L 3 1 L 4 1 L 4 1 L 4 1 L 6 7 L 5 7 L 5 7 L 5 7 L 5 7 L 5 7 L 5 7 L 5 7 Z " fill-rule="evenodd" fill="rgb(0,0,0)"/></g></svg>