<?xml version="1.0" standalone="no"?><!-- Generator: Gravit.io --><svg xmlns="http://www.w3.org/2000/svg" xmlns:xlink="http://www.w3.org/1999/xlink" style="isolation:isolate" viewBox="0 0 16 16" width="16" height="16"><defs><clipPath id="_clipPath_6E937Z6FbzrxsUTQPn9HXvI1uPxp4sNb"><rect width="16" height="16"/></clipPath></defs><g clip-path="url(#_clipPath_6E937Z6FbzrxsUTQPn9HXvI1uPxp4sNb)"><path d=" M 11 11.329 L 10.783 11.08 C 10.421 10.663 9.789 10.619 9.372 10.981 L 9.372 10.981 C 8.956 11.343 8.912 11.976 9.274 12.392 L 11.242 14.656 C 11.31 14.734 11.387 14.799 11.474 14.844 C 11.509 14.875 11.549 14.895 11.593 14.902 C 11.665 14.947 11.745 14.971 11.827 14.978 C 11.885 14.994 11.945 15 12.005 14.991 C 12.064 15 12.124 14.994 12.182 14.978 C 12.264 14.971 12.344 14.947 12.416 14.902 C 12.46 14.895 12.5 14.875 12.535 14.844 C 12.622 14.799 12.699 14.734 12.767 14.656 L 14.735 12.392 C 15.097 11.976 15.053 11.343 14.637 10.981 L 14.637 10.981 C 14.22 10.619 13.588 10.663 13.226 11.08 L 13 11.34 L 13 2 C 13 1.448 12.552 1 12 1 L 12 1 C 11.448 1 11 1.448 11 2 L 11 11.329 Z  M 3.945 12 L 3.5 10.66 L 3.5 10.66 L 3.055 12 L 3.945 12 L 3.945 12 L 3.945 12 L 3.945 12 L 3.945 12 L 3.945 12 L 3.945 12 L 3.945 12 L 3.945 12 L 3.945 12 Z  M 1 6 L 1 7 L 6 7 L 6 6 L 2.498 6 L 6 2 L 6 1 L 1 1 L 1 2 L 4.502 2 L 1 6 L 1 6 L 1 6 L 1 6 L 1 6 Z  M 5 15 L 4.278 13 L 4.278 13 L 2.722 13 L 2 15 L 1 15 L 3 9 L 4 9 L 4 9 L 4 9 L 6 15 L 5 15 L 5 15 L 5 15 L 5 15 L 5 15 L 5 15 L 5 15 L 5 15 L 5 15 Z " fill-rule="evenodd" fill="rgb(0,0,0)"/></g></svg>