<?xml version="1.0" standalone="no"?><!-- Generator: Gravit.io --><svg xmlns="http://www.w3.org/2000/svg" xmlns:xlink="http://www.w3.org/1999/xlink" style="isolation:isolate" viewBox="0 0 16 16" width="16" height="16"><defs><clipPath id="_clipPath_cvH70c0VSVWIoccBnm9Cjr1kPVBkXxcy"><rect width="16" height="16"/></clipPath></defs><g clip-path="url(#_clipPath_cvH70c0VSVWIoccBnm9Cjr1kPVBkXxcy)"><path d=" M 13.9 6 L 10 6 L 10 2.1 C 11.96 2.5 13.5 4.04 13.9 6 L 13.9 6 L 13.9 6 L 13.9 6 Z  M 2.1 10 L 6 10 L 6 13.9 C 4.04 13.5 2.5 11.96 2.1 10 L 2.1 10 L 2.1 10 L 2.1 10 Z  M 15 7 L 9 7 L 9 1 L 9 1 L 9 1 C 12.311 1 15 3.689 15 7 L 15 7 L 15 7 L 15 7 L 15 7 Z  M 1 9 L 7 9 L 7 15 L 7 15 C 3.689 15 1 12.311 1 9 L 1 9 L 1 9 L 1 9 L 1 9 L 1 9 Z  M 6 2.1 L 6 6 L 2.1 6 C 2.5 4.04 4.04 2.5 6 2.1 L 6 2.1 L 6 2.1 L 6 2.1 Z  M 10 13.9 L 10 10 L 13.9 10 C 13.5 11.96 11.96 13.5 10 13.9 L 10 13.9 L 10 13.9 L 10 13.9 Z  M 7 1 L 7 7 L 1 7 L 1 7 L 1 7 C 1 3.689 3.689 1 7 1 L 7 1 L 7 1 L 7 1 L 7 1 Z  M 9 15 L 9 9 L 15 9 L 15 9 C 15 12.311 12.311 15 9 15 L 9 15 L 9 15 L 9 15 L 9 15 L 9 15 Z " fill-rule="evenodd" fill="rgb(0,0,0)"/></g></svg>