<?xml version="1.0" standalone="no"?><!-- Generator: Gravit.io --><svg xmlns="http://www.w3.org/2000/svg" xmlns:xlink="http://www.w3.org/1999/xlink" style="isolation:isolate" viewBox="0 0 16 16" width="16" height="16"><defs><clipPath id="_clipPath_SZUFARPfWQ2PkcALrIajxq7TqY10nDM8"><rect width="16" height="16"/></clipPath></defs><g clip-path="url(#_clipPath_SZUFARPfWQ2PkcALrIajxq7TqY10nDM8)"><path d=" M 1 7 C 1 3.689 3.689 1 7 1 L 7 1 L 7 7 L 1 7 L 1 7 Z  M 15 7 C 15 3.689 12.311 1 9 1 L 9 1 L 9 1 L 9 7 L 15 7 L 15 7 Z  M 1 9 L 1 9 C 1 12.311 3.689 15 7 15 L 7 15 L 7 9 L 1 9 L 1 9 Z  M 15 9 L 15 9 C 15 12.311 12.311 15 9 15 L 9 9 L 15 9 L 15 9 Z " fill-rule="evenodd" fill="rgb(0,0,0)"/></g></svg>