<?xml version="1.0" standalone="no"?><!-- Generator: Gravit.io --><svg xmlns="http://www.w3.org/2000/svg" xmlns:xlink="http://www.w3.org/1999/xlink" style="isolation:isolate" viewBox="0 0 16 16" width="16" height="16"><defs><clipPath id="_clipPath_jllF3I2aELXmdopTQE6wFaECcPTabLv2"><rect width="16" height="16"/></clipPath></defs><g clip-path="url(#_clipPath_jllF3I2aELXmdopTQE6wFaECcPTabLv2)"><path d=" M 7 14 L 7 14 C 3.689 14 1 11.311 1 8 C 1 4.689 3.689 2 7 2 L 7 14 Z  M 9 2 L 9 2 C 12.311 2 15 4.689 15 8 C 15 11.311 12.311 14 9 14 L 9 2 Z  M 6 12.9 C 4.87 12.67 3.86 12.05 3.13 11.16 C 2.4 10.27 2 9.15 2 8 C 2 6.85 2.4 5.73 3.13 4.84 C 3.86 3.95 4.87 3.33 6 3.1 L 6 12.9 Z  M 10 3.1 C 11.13 3.33 12.14 3.95 12.87 4.84 C 13.6 5.73 14 6.85 14 8 C 14 9.15 13.6 10.27 12.87 11.16 C 12.14 12.05 11.13 12.67 10 12.9 L 10 3.1 Z " fill-rule="evenodd" fill="rgb(0,0,0)"/></g></svg>