<?xml version="1.0" standalone="no"?><!-- Generator: Gravit.io --><svg xmlns="http://www.w3.org/2000/svg" xmlns:xlink="http://www.w3.org/1999/xlink" style="isolation:isolate" viewBox="0 0 16 16" width="16" height="16"><defs><clipPath id="_clipPath_QoNN2COdLXT8Xf8WAuJ5Q54RFKw5BkwN"><rect width="16" height="16"/></clipPath></defs><g clip-path="url(#_clipPath_QoNN2COdLXT8Xf8WAuJ5Q54RFKw5BkwN)"><path d=" M 3 12 L 13 12 L 13 13 L 3 13 L 3 12 L 3 12 L 3 12 L 3 12 L 3 12 L 3 12 L 3 12 Z  M 3 10 L 13 10 L 13 11 L 3 11 L 3 10 L 3 10 L 3 10 L 3 10 L 3 10 L 3 10 Z  M 3 8 L 13 8 L 13 9 L 3 9 L 3 8 L 3 8 L 3 8 L 3 8 L 3 8 Z  M 3 6 L 13 6 L 13 7 L 3 7 L 3 6 L 3 6 L 3 6 L 3 6 Z  M 12 3 L 13 3 L 13 4 L 12 4 L 12 3 L 12 3 L 12 3 Z  M 10 3 L 11 3 L 11 4 L 10 4 L 10 3 L 10 3 Z  M 1 1 L 15 1 L 15 15 L 1 15 L 1 1 L 1 1 L 1 1 L 1 1 L 1 1 L 1 1 L 1 1 Z  M 8 3 L 9 3 L 9 4 L 8 4 L 8 3 Z " fill-rule="evenodd" fill="rgb(0,0,0)"/></g></svg>