<?xml version="1.0" standalone="no"?><!-- Generator: Gravit.io --><svg xmlns="http://www.w3.org/2000/svg" xmlns:xlink="http://www.w3.org/1999/xlink" style="isolation:isolate" viewBox="0 0 16 16" width="16" height="16"><defs><clipPath id="_clipPath_ZdJ4ExAkVqt7blDsDZhK6Fs2hfAWJitv"><rect width="16" height="16"/></clipPath></defs><g clip-path="url(#_clipPath_ZdJ4ExAkVqt7blDsDZhK6Fs2hfAWJitv)"><path d=" M 8 6.586 L 2.93 1.516 C 2.531 1.117 1.89 1.11 1.5 1.5 L 1.5 1.5 C 1.11 1.89 1.117 2.531 1.516 2.93 L 6.586 8 L 1.516 13.07 C 1.117 13.469 1.11 14.11 1.5 14.5 L 1.5 14.5 C 1.89 14.89 2.531 14.883 2.93 14.484 L 8 9.414 L 13.07 14.484 C 13.469 14.883 14.11 14.89 14.5 14.5 L 14.5 14.5 C 14.89 14.11 14.883 13.469 14.484 13.07 L 9.414 8 L 14.484 2.93 C 14.883 2.531 14.89 1.89 14.5 1.5 L 14.5 1.5 C 14.11 1.11 13.469 1.117 13.07 1.516 L 8 6.586 Z " fill="rgb(0,0,0)"/></g></svg>